<?xml version="1.0" encoding="UTF-8"?>
<svg xmlns="http://www.w3.org/2000/svg" xmlns:xlink="http://www.w3.org/1999/xlink" width="24px" height="19px" viewBox="0 0 24 19" version="1.1">
<g id="surface1">
<path style=" stroke:none;fill-rule:nonzero;fill:rgb(100%,100%,100%);fill-opacity:1;" d="M 9.054688 10.644531 C 9.140625 9.171875 9.882812 7.871094 11.011719 6.953125 C 12.113281 6.046875 13.59375 5.496094 15.21875 5.496094 C 16.839844 5.496094 18.320312 6.046875 19.421875 6.953125 C 20.546875 7.871094 21.289062 9.171875 21.378906 10.644531 C 21.460938 12.15625 20.835938 13.566406 19.734375 14.609375 C 18.609375 15.671875 17.015625 16.339844 15.21875 16.339844 C 13.425781 16.339844 11.824219 15.675781 10.707031 14.609375 C 9.601562 13.566406 8.976562 12.164062 9.0625 10.652344 Z M 9.054688 10.644531 "/>
<path style=" stroke:none;fill-rule:nonzero;fill:rgb(14.901961%,34.117647%,52.941176%);fill-opacity:1;" d="M 12.429688 10.464844 C 12.472656 9.707031 12.855469 9.039062 13.433594 8.566406 C 14 8.101562 14.761719 7.816406 15.597656 7.816406 C 16.425781 7.816406 17.1875 8.101562 17.753906 8.566406 C 18.332031 9.039062 18.714844 9.707031 18.757812 10.464844 C 18.804688 11.242188 18.480469 11.964844 17.917969 12.503906 C 17.335938 13.046875 16.519531 13.390625 15.597656 13.390625 C 14.671875 13.390625 13.851562 13.050781 13.277344 12.503906 C 12.710938 11.964844 12.386719 11.246094 12.433594 10.46875 Z M 12.429688 10.464844 "/>
<path style=" stroke:none;fill-rule:nonzero;fill:rgb(91.764706%,46.27451%,0%);fill-opacity:1;" d="M 7.464844 12.066406 C 7.46875 12.363281 7.566406 12.9375 7.714844 13.386719 C 8.023438 14.339844 8.546875 15.222656 9.269531 15.996094 C 10.015625 16.792969 10.933594 17.433594 11.992188 17.886719 C 13.101562 18.363281 14.3125 18.609375 15.5625 18.609375 C 16.816406 18.609375 18.023438 18.359375 19.136719 17.875 C 20.195312 17.414062 21.113281 16.773438 21.859375 15.972656 C 22.585938 15.195312 23.109375 14.3125 23.414062 13.359375 C 23.570312 12.878906 23.667969 12.390625 23.707031 11.902344 C 23.746094 11.421875 23.730469 10.9375 23.65625 10.453125 C 23.519531 9.511719 23.183594 8.625 22.664062 7.824219 C 22.195312 7.085938 21.582031 6.441406 20.855469 5.894531 L 13.535156 0.449219 C 13.527344 0.445312 13.523438 0.4375 13.515625 0.433594 C 13.035156 0.078125 12.226562 0.078125 11.699219 0.4375 C 11.167969 0.796875 11.105469 1.398438 11.582031 1.773438 L 11.578125 1.777344 L 14.632812 4.183594 L 5.328125 4.191406 L 5.316406 4.191406 C 4.546875 4.191406 3.808594 4.679688 3.664062 5.300781 C 3.511719 5.929688 4.035156 6.453125 4.835938 6.453125 L 4.835938 6.457031 L 9.550781 6.449219 L 1.113281 12.695312 C 1.101562 12.703125 1.089844 12.710938 1.082031 12.71875 C 0.285156 13.308594 0.03125 14.289062 0.53125 14.90625 C 1.039062 15.53125 2.121094 15.539062 2.921875 14.90625 L 7.511719 11.265625 C 7.511719 11.265625 7.445312 11.757812 7.449219 12.050781 Z M 19.292969 13.710938 C 18.347656 14.644531 17.019531 15.175781 15.585938 15.175781 C 14.152344 15.179688 12.824219 14.65625 11.878906 13.722656 C 11.414062 13.265625 11.074219 12.746094 10.863281 12.191406 C 10.660156 11.640625 10.578125 11.0625 10.632812 10.476562 C 10.683594 9.902344 10.859375 9.355469 11.140625 8.863281 C 11.417969 8.378906 11.796875 7.9375 12.265625 7.566406 C 13.1875 6.839844 14.359375 6.445312 15.582031 6.445312 C 16.8125 6.441406 17.980469 6.832031 18.902344 7.558594 C 19.371094 7.925781 19.75 8.367188 20.027344 8.851562 C 20.3125 9.34375 20.488281 9.886719 20.539062 10.464844 C 20.589844 11.050781 20.507812 11.628906 20.304688 12.179688 C 20.09375 12.738281 19.753906 13.257812 19.289062 13.714844 Z M 19.292969 13.710938 "/>
</g>
</svg>
